# xmcd
#
# Track frame offsets: 
#        150
#        14241
#        28306
#        45647
#        59777
#        73185
#        87517
#        98604
#        111441
#        123755
#        143747
#        157564
#        173244
#        189259
#        202736
#
# Disc length: 2927 seconds
#
# Revision: 0
# Processed by: cddbd v1.5.2PL0 Copyright (c) Steve Scherf et al.
# Submitted via: ExactAudioCopy v0.95b4
#
DISCID=ce0b6d0f
DTITLE=Various Artist - Superstars of Country - Easy Loving  CD 2
DYEAR=1900
DGENRE=Country
TTITLE0=Houston (Means I'm One Day Closer to You) - Gatlin Brothers
TTITLE1=Baby Don't Get Hooked on Me - Mac Davis
TTITLE2=For the Good Times - Ray Price
TTITLE3=The Grand Tour - George Jones
TTITLE4=D-I-V-O-R-C-E - Tammy Wynette
TTITLE5=Harper Valley P.T.A. - Jeannie C. Riley
TTITLE6=On the Road Again - Willie Nelson
TTITLE7=Room Full of Roses - Mickey Gilley
TTITLE8=The Most Beautiful Girl in the World - Charlie Rich
TTITLE9=Sunday Morning Coming Down - Johnny Cash
TTITLE10=Teddy Bear Song - Barbara Fairchild
TTITLE11=Why Me Lord - Kris Kristofferson
TTITLE12=My Woman, My Woman, My Wife - Marty Robbins
TTITLE13=I Can Help - Billy Swan
TTITLE14=A Boy Named Sue - Johnny Cash
EXTD=
EXTT0=Houston (Means I'm One Day Closer to You) - Gatlin Brothers
EXTT1=
EXTT2=
EXTT3=
EXTT4=
EXTT5=
EXTT6=
EXTT7=
EXTT8=
EXTT9=
EXTT10=
EXTT11=
EXTT12=
EXTT13=
EXTT14=
PLAYORDER=
